<?xml version="1.0" encoding="UTF-8"?>
<svg version="1.1" xmlns="http://www.w3.org/2000/svg" width="277" height="275">
<path d="M0 0 C91.41 0 182.82 0 277 0 C277 90.75 277 181.5 277 275 C185.59 275 94.18 275 0 275 C0 184.25 0 93.5 0 0 Z " fill="#1D1D1D" transform="translate(0,0)"/>
<path d="M0 0 C15.51 0 31.02 0 47 0 C47 11.88 47 23.76 47 36 C57.23 36 67.46 36 78 36 C78 41.61 78 47.22 78 53 C62.16 53 46.32 53 30 53 C30 41.12 30 29.24 30 17 C20.1 17 10.2 17 0 17 C0 11.39 0 5.78 0 0 Z " fill="#F2F2F2" transform="translate(163,185)"/>
<path d="M0 0 C5.61 0 11.22 0 17 0 C17 10.23 17 20.46 17 31 C26.57 31 36.14 31 46 31 C46 46.51 46 62.02 46 78 C40.39 78 34.78 78 29 78 C29 68.1 29 58.2 29 48 C19.43 48 9.86 48 0 48 C0 32.16 0 16.32 0 0 Z " fill="#F3F3F3" transform="translate(131,184)"/>
<path d="M0 0 C15.51 0 31.02 0 47 0 C47 11.55 47 23.1 47 35 C56.9 35 66.8 35 77 35 C77 40.28 77 45.56 77 51 C61.82 51 46.64 51 31 51 C31 39.45 31 27.9 31 16 C20.77 16 10.54 16 0 16 C0 10.72 0 5.44 0 0 Z " fill="#FEFEFE" transform="translate(37,36)"/>
<path d="M0 0 C15.84 0 31.68 0 48 0 C48 9.57 48 19.14 48 29 C57.9 29 67.8 29 78 29 C78 34.61 78 40.22 78 46 C62.49 46 46.98 46 31 46 C31 36.1 31 26.2 31 16 C20.77 16 10.54 16 0 16 C0 10.72 0 5.44 0 0 Z " fill="#F7F7F7" transform="translate(130,6)"/>
<path d="M0 0 C5.61 0 11.22 0 17 0 C17 15.84 17 31.68 17 48 C7.1 48 -2.8 48 -13 48 C-13 57.9 -13 67.8 -13 78 C-18.28 78 -23.56 78 -29 78 C-29 62.82 -29 47.64 -29 32 C-19.43 32 -9.86 32 0 32 C0 21.44 0 10.88 0 0 Z " fill="#F9F9F9" transform="translate(223,34)"/>
<path d="M0 0 C17.16 0 34.32 0 52 0 C52 5.28 52 10.56 52 16 C40.12 16 28.24 16 16 16 C16 25.9 16 35.8 16 46 C2.14 46 -11.72 46 -26 46 C-26 40.72 -26 35.44 -26 30 C-17.42 30 -8.84 30 0 30 C0 20.1 0 10.2 0 0 Z " fill="#FAFAFA" transform="translate(39,129)"/>
<path d="M0 0 C5.28 0 10.56 0 16 0 C16 15.18 16 30.36 16 46 C5.77 46 -4.46 46 -15 46 C-15 56.23 -15 66.46 -15 77 C-20.28 77 -25.56 77 -31 77 C-31 61.49 -31 45.98 -31 30 C-20.77 30 -10.54 30 0 30 C0 20.1 0 10.2 0 0 Z " fill="#FFFFFF" transform="translate(39,68)"/>
<path d="M0 0 C15.18 0 30.36 0 46 0 C46 9.57 46 19.14 46 29 C56.56 29 67.12 29 78 29 C78 34.28 78 39.56 78 45 C62.16 45 46.32 45 30 45 C30 35.43 30 25.86 30 16 C20.1 16 10.2 16 0 16 C0 10.72 0 5.44 0 0 Z " fill="#FCFCFC" transform="translate(70,222)"/>
<path d="M0 0 C5.28 0 10.56 0 16 0 C16 15.18 16 30.36 16 46 C6.43 46 -3.14 46 -13 46 C-13 56.56 -13 67.12 -13 78 C-18.28 78 -23.56 78 -29 78 C-29 62.16 -29 46.32 -29 30 C-19.43 30 -9.86 30 0 30 C0 20.1 0 10.2 0 0 Z " fill="#FCFCFC" transform="translate(67,161)"/>
<path d="M0 0 C13.53 0 27.06 0 41 0 C41 5.28 41 10.56 41 16 C32.75 16 24.5 16 16 16 C16 25.57 16 35.14 16 45 C-1.49 45 -18.98 45 -37 45 C-37 39.72 -37 34.44 -37 29 C-24.79 29 -12.58 29 0 29 C0 19.43 0 9.86 0 0 Z " fill="#FCFCFC" transform="translate(223,99)"/>
<path d="M0 0 C5.28 0 10.56 0 16 0 C16 15.51 16 31.02 16 47 C6.43 47 -3.14 47 -13 47 C-13 56.9 -13 66.8 -13 77 C-18.28 77 -23.56 77 -29 77 C-29 61.82 -29 46.64 -29 31 C-19.43 31 -9.86 31 0 31 C0 20.77 0 10.54 0 0 Z " fill="#FCFCFC" transform="translate(253,128)"/>
<path d="M0 0 C5.28 0 10.56 0 16 0 C16 9.9 16 19.8 16 30 C25.57 30 35.14 30 45 30 C45 45.51 45 61.02 45 77 C39.72 77 34.44 77 29 77 C29 66.77 29 56.54 29 46 C19.43 46 9.86 46 0 46 C0 30.82 0 15.64 0 0 Z " fill="#FDFDFD" transform="translate(101,12)"/>
<path d="M0 0 C5.28 0 10.56 0 16 0 C16 15.51 16 31.02 16 47 C6.1 47 -3.8 47 -14 47 C-14 53.93 -14 60.86 -14 68 C-19.28 68 -24.56 68 -30 68 C-30 55.79 -30 43.58 -30 31 C-20.1 31 -10.2 31 0 31 C0 20.77 0 10.54 0 0 Z " fill="#FCFCFC" transform="translate(161,69)"/>
<path d="M0 0 C15.18 0 30.36 0 46 0 C46 5.28 46 10.56 46 16 C36.1 16 26.2 16 16 16 C16 28.21 16 40.42 16 53 C10.72 53 5.44 53 0 53 C0 35.51 0 18.02 0 0 Z " fill="#FCFCFC" transform="translate(101,152)"/>
<path d="M0 0 C5.61 0 11.22 0 17 0 C17 6.6 17 13.2 17 20 C27.23 20 37.46 20 48 20 C48 25.61 48 31.22 48 37 C32.16 37 16.32 37 0 37 C0 24.79 0 12.58 0 0 Z " fill="#F3F3F3" transform="translate(159,137)"/>
<path d="M0 0 C15.51 0 31.02 0 47 0 C47 12.21 47 24.42 47 37 C41.72 37 36.44 37 31 37 C31 30.07 31 23.14 31 16 C20.77 16 10.54 16 0 16 C0 10.72 0 5.44 0 0 Z " fill="#FDFDFD" transform="translate(71,99)"/>
</svg>
